<svg width="90" height="30" viewBox="0 0 90 30" fill="none" xmlns="http://www.w3.org/2000/svg">
<path d="M11.6044 23.645C11.2094 22.541 10.4168 21.7865 9.50095 21.7865H4.43494C4.43494 21.7865 2.12346 21.7879 1.7795 19.2075L0.644287 20.5692L0.917475 23.8064C0.917475 23.8064 1.46243 27.7514 4.43494 28.6658H9.50095C9.50095 28.6658 10.7466 28.2807 11.1755 27.6579C11.6044 27.0351 11.869 26.1745 11.869 25.2247C11.869 24.6557 11.7728 24.1178 11.6044 23.645Z" fill="url(#paint0_linear_1_36242)"/>
<path d="M27.3401 3.398C27.2764 3.60466 27.2056 3.81981 27.1278 4.0378C27.1264 4.04204 27.1249 4.04629 27.1235 4.05054C26.4158 6.03504 25.0895 8.38049 22.7808 8.38049H8.06408C3.02922 8.38049 4.33854 12.8308 4.36826 12.9298C-0.247617 1.33423 8.06408 1.33423 8.06408 1.33423H26.2615C26.9339 1.43473 27.7378 1.85937 27.3401 3.398Z" fill="url(#paint1_linear_1_36242)"/>
<path d="M19.7094 12.8634C19.1772 11.7324 18.1057 10.9595 16.8699 10.9595H9.54625H4.11081C4.11081 10.9595 -2.59999 10.9595 1.12697 22.5552C1.10291 22.4561 0.0455451 18.0058 4.11081 18.0058H9.54625H15.9909H16.8699C17.7518 18.0058 18.5515 17.6109 19.1305 16.9739C19.7094 16.3355 20.0661 15.4551 20.0661 14.4827C20.0661 13.8995 19.9387 13.3489 19.7094 12.8634Z" fill="url(#paint2_linear_1_36242)"/>
<path d="M41.0086 9.264C40.3126 9.264 39.3526 9.576 39.3526 10.896V12.192H44.0566V6.624H47.2486V24H44.0566V14.928H39.3526V24H36.1366V14.928H34.1686V12.192H36.1366V10.848C36.1366 8.184 37.8166 6.456 40.4326 6.456C41.1046 6.456 41.7526 6.576 42.0166 6.696V9.384C41.8486 9.336 41.5366 9.264 41.0086 9.264ZM53.8458 24H50.6538V12.192H53.8458V24ZM50.2698 8.328C50.2698 7.224 51.1578 6.336 52.2378 6.336C53.3418 6.336 54.2058 7.224 54.2058 8.328C54.2058 9.384 53.3418 10.272 52.2378 10.272C51.1578 10.272 50.2698 9.384 50.2698 8.328ZM62.5672 14.784C60.9352 14.784 59.5672 15.96 59.5672 18.096C59.5672 20.232 60.9592 21.432 62.5912 21.432C64.2232 21.432 65.0392 20.352 65.3032 19.44L68.1112 20.376C67.5832 22.344 65.7352 24.36 62.5912 24.36C59.1112 24.36 56.3752 21.72 56.3752 18.096C56.3752 14.448 59.0632 11.832 62.4952 11.832C65.7112 11.832 67.5352 13.824 68.0392 15.816L65.1832 16.776C64.8952 15.792 64.1512 14.784 62.5672 14.784ZM81.9065 12.192L77.1785 17.16L82.0025 24H78.0905L74.9705 19.488L73.6505 20.88V24H70.4585V6.624H73.6505V16.584L77.7305 12.192H81.9065ZM83.5561 21.984C83.5561 20.784 84.5401 19.8 85.7401 19.8C86.9641 19.8 87.9481 20.784 87.9481 21.984C87.9481 23.184 86.9641 24.168 85.7401 24.168C84.5401 24.168 83.5561 23.184 83.5561 21.984Z" fill="#151F32"/>
<defs>
<linearGradient id="paint0_linear_1_36242" x1="10.9557" y1="19.2009" x2="1.62299" y2="28.095" gradientUnits="userSpaceOnUse">
<stop stop-color="#E21C23"/>
<stop offset="1" stop-color="#AE1E22"/>
</linearGradient>
<linearGradient id="paint1_linear_1_36242" x1="2.97253" y1="9.72644" x2="14.8643" y2="-6.27926" gradientUnits="userSpaceOnUse">
<stop stop-color="#ED1A70"/>
<stop offset="1" stop-color="#F15D2F"/>
</linearGradient>
<linearGradient id="paint2_linear_1_36242" x1="18.2042" y1="10.9231" x2="8.64148" y2="24.8145" gradientUnits="userSpaceOnUse">
<stop stop-color="#6AC28C"/>
<stop offset="1" stop-color="#38BDB1"/>
</linearGradient>
</defs>
</svg>
